<?xml version="1.0" encoding="iso-8859-1"?>
<!-- Generator: Adobe Illustrator 19.0.0, SVG Export Plug-In . SVG Version: 6.00 Build 0)  -->
<svg version="1.1" id="Capa_1" xmlns="http://www.w3.org/2000/svg" xmlns:xlink="http://www.w3.org/1999/xlink" x="0px" y="0px"
	 viewBox="0 0 480 480" style="enable-background:new 0 0 480 480;" xml:space="preserve">
<path style="fill:#06B0C7;" d="M40,304V200v-72c0-22.088,17.912-40,40-40h160c22.088,0,40,17.912,40,40v72v104
	c0,22.088-17.912,40-40,40h-64v32h72c35.344,0,64-28.656,64-64V120c0-35.344-28.656-64-64-64h-24c-8.84,0-16-7.16-16-16V24
	c0-8.84-7.16-16-16-16h-64c-8.84,0-16,7.16-16,16v16c0,8.84-7.16,16-16,16H72C36.656,56,8,84.656,8,120v192
	c0,35.344,28.656,64,64,64h8v-32C57.912,344,40,326.088,40,304z M160,32c8.84,0,16,7.16,16,16s-7.16,16-16,16s-16-7.16-16-16
	S151.16,32,160,32z"/>
<circle style="fill:#FFFFFF;" cx="160" cy="48" r="16"/>
<rect x="112" y="344" style="fill:#06B0C7;" width="32" height="32"/>
<path style="fill:#C30000;" d="M176,376v-32h64c22.088,0,40-17.912,40-40V200H40v104c0,22.088,17.912,40,40,40v32v40h32v-40v-32h32
	v32v40h16h16V376z M248,240v40V240z M248,288v16V288z"/>
<path style="fill:#FFFFFF;" d="M240,88H80c-22.088,0-40,17.912-40,40v72h240v-72C280,105.912,262.088,88,240,88z"/>
<rect x="80" y="416" style="fill:#BCBCBC;" width="32" height="32"/>
<path d="M160,72c13.232,0,24-10.768,24-24s-10.768-24-24-24s-24,10.768-24,24S146.768,72,160,72z M160,40c4.408,0,8,3.592,8,8
	s-3.592,8-8,8s-8-3.592-8-8S155.592,40,160,40z"/>
<path d="M428,80c-28.672,0-52,23.328-52,52v284c0,26.472-21.528,48-48,48H216c-23.736,0-43.448-17.336-47.28-40H176
	c4.416,0,8-3.584,8-8v-32h64c39.696,0,72-32.304,72-72V120c0-39.696-32.304-72-72-72h-24c-4.408,0-8-3.592-8-8V24
	c0-13.232-10.768-24-24-24h-64c-13.232,0-24,10.768-24,24v16c0,4.408-3.592,8-8,8H72C32.304,48,0,80.304,0,120v192
	c0,39.696,32.304,72,72,72v32v32c0,4.416,3.584,8,8,8h32c4.416,0,8-3.584,8-8v-32v-32h16v32c0,4.416,3.584,8,8,8h8.552
	c3.96,31.52,30.872,56,63.448,56h112c35.288,0,64-28.712,64-64V132c0-19.848,16.152-36,36-36s36,16.152,36,36v348h16V132
	C480,103.328,456.672,80,428,80z M152,376v-32c0-4.416-3.584-8-8-8h-32c-4.416,0-8,3.584-8,8v32v32H88v-32v-32c0-4.416-3.584-8-8-8
	c-17.648,0-32-14.352-32-32V200.28c13.24,0.888,20.968,3.928,29.008,7.144C87.536,211.64,98.432,216,119.968,216
	c21.544,0,32.44-4.36,42.976-8.568c9.552-3.824,18.568-7.432,37.04-7.432s27.488,3.608,37.04,7.432
	c9.136,3.656,18.576,7.408,34.976,8.344V304c0,17.648-14.352,32-32,32h-64c-4.416,0-8,3.584-8,8v32v32h-16V376z M272,199.72
	c-13.256-0.888-20.992-3.928-29.032-7.144c-10.544-4.216-21.44-8.576-42.984-8.576s-32.44,4.36-42.976,8.568
	c-9.56,3.824-18.576,7.432-37.04,7.432c-18.456,0-27.472-3.608-37.008-7.424c-9.136-3.656-18.568-7.416-34.952-8.344V128
	c0-17.648,14.352-32,32-32h160c17.648,0,32,14.352,32,32v71.72H272z M16,312V120c0-30.88,25.12-56,56-56h24
	c13.232,0,24-10.768,24-24V24c0-4.408,3.592-8,8-8h64c4.408,0,8,3.592,8,8v16c0,13.232,10.768,24,24,24h24c30.88,0,56,25.12,56,56
	v192c0,30.88-25.12,56-56,56h-64v-16h56c26.472,0,48-21.528,48-48V128c0-26.472-21.528-48-48-48H80c-26.472,0-48,21.528-48,48v176
	c0,23.744,17.328,43.512,40,47.336V368C41.12,368,16,342.88,16,312z M104,440H88v-16h16V440z M120,368v-16h16v16H120z"/>
<rect x="240" y="288" width="16" height="16"/>
<rect x="240" y="240" width="16" height="40"/>
<g>
</g>
<g>
</g>
<g>
</g>
<g>
</g>
<g>
</g>
<g>
</g>
<g>
</g>
<g>
</g>
<g>
</g>
<g>
</g>
<g>
</g>
<g>
</g>
<g>
</g>
<g>
</g>
<g>
</g>
</svg>
