<svg id="Layer_1" enable-background="new 0 0 128 128" height="512" viewBox="0 0 128 128" width="512" xmlns="http://www.w3.org/2000/svg"><g><g fill="#e6e7e8"><path d="m73.133 79.094c14.612 0 26.5-11.888 26.5-26.5 0-15.757-24.698-44.035-25.749-45.231-.19-.216-.463-.34-.751-.34h-.001c-.288 0-.562.125-.751.342-1.051 1.203-25.747 29.64-25.747 45.229-.001 14.612 11.887 26.5 26.499 26.5z"/><path d="m123.641 70.567c-2.749-2.649-7.191-2.779-10.337-.301l-20.296 15.994c-1.36-1.852-3.503-2.962-5.831-2.962h-16.756c-4.176 0-8.324-.595-12.331-1.77l-3.914-1.147c-3.792-1.119-7.535-1.524-11.122-1.208-9.907.857-14.027 6.131-16.241 8.964-.521.667-.971 1.244-1.273 1.469-.411.29-7.304 4.592-17.989 11.226-.753.467-1.275 1.201-1.47 2.064-.196.866-.039 1.754.441 2.501l11.61 18.062c.631.981 1.679 1.517 2.756 1.517.58 0 1.167-.155 1.703-.479 11.522-6.978 19.191-11.505 19.98-11.805 2.679-.758 8.422.494 14.504 1.819 5.878 1.282 11.957 2.607 16.997 2.607 6.542 0 11.854-3.332 15.161-6.128 2.815-2.39 34.117-29.072 34.124-29.079 1.623-1.412 2.585-3.455 2.64-5.605.056-2.15-.804-4.241-2.356-5.739z"/></g><g><g><g><path d="m94.633 48.594c0 14.083-11.417 25.5-25.5 25.5s-25.5-11.417-25.5-25.5c0-15.393 25.5-44.571 25.5-44.571s25.5 29.009 25.5 44.571z" fill="#fa759e"/></g><g fill="#fff"><path d="m46.633 48.594c0-13.135 18.557-36.294 24.004-42.809-.941-1.12-1.504-1.762-1.504-1.762s-25.5 29.178-25.5 44.571c0 14.083 11.417 25.5 25.5 25.5.504 0 1.003-.019 1.5-.047-13.384-.777-24-11.874-24-25.453z"/><circle cx="81.361" cy="62.046" r="1.775"/><path d="m84.368 60.041c-.271 0-.544-.073-.791-.227-.703-.438-.919-1.362-.481-2.066 2.373-3.814 3.198-8.7 2.454-14.522-.105-.822.476-1.573 1.297-1.678.822-.11 1.573.476 1.678 1.297.834 6.525-.135 12.072-2.882 16.488-.284.457-.774.708-1.275.708z"/></g></g><g><path d="m118.947 67.288c-2.449-2.361-6.352-2.342-9.024-.236l-21.175 16.686c-1.039-2.033-3.13-3.44-5.571-3.44h-16.757c-4.269 0-8.516-.609-12.612-1.81l-3.915-1.147c-3.49-1.029-7.133-1.49-10.753-1.171-12.03 1.041-15.047 8.777-17.01 10.244-.433.323-13.088 8.186-18.051 11.268-1.084.673-1.405 2.102-.714 3.176l11.61 18.061c.67 1.042 2.041 1.364 3.1.723 5.184-3.139 19.268-11.64 20.225-11.912 5.554-1.573 21.375 4.389 31.773 4.389 6.305 0 11.451-3.3 14.514-5.891 2.815-2.39 34.115-29.071 34.115-29.071 2.95-2.567 3.091-7.126.245-9.869z" fill="#ffd7e5"/><g fill="#3a2c60"><path d="m69.133 75.094c14.612 0 26.5-11.888 26.5-26.5 0-15.757-24.698-44.035-25.749-45.231-.19-.216-.463-.34-.751-.34h-.001c-.288 0-.562.125-.751.342-1.051 1.203-25.747 29.64-25.747 45.229-.001 14.612 11.887 26.5 26.499 26.5zm.002-69.535c4.201 4.939 24.498 29.509 24.498 43.035 0 13.509-10.991 24.5-24.5 24.5s-24.5-10.991-24.5-24.5c0-13.376 20.307-38.075 24.502-43.035z"/><path d="m119.641 66.568c-2.749-2.649-7.192-2.779-10.337-.302l-20.296 15.995c-1.359-1.852-3.503-2.962-5.831-2.962h-16.756c-4.175 0-8.324-.595-12.331-1.769l-3.914-1.147c-3.792-1.119-7.535-1.524-11.121-1.208-9.907.856-14.027 6.13-16.241 8.963-.521.667-.971 1.244-1.273 1.469-.411.291-7.136 4.487-17.988 11.226-.753.468-1.275 1.201-1.471 2.065-.195.866-.038 1.754.442 2.5l11.61 18.062c.63.981 1.679 1.517 2.756 1.517.58 0 1.167-.155 1.703-.479 11.522-6.977 19.19-11.504 19.98-11.805 2.679-.759 8.422.494 14.504 1.819 5.878 1.282 11.957 2.607 16.997 2.607 6.541 0 11.854-3.332 15.161-6.128 2.816-2.39 34.117-29.072 34.124-29.079 1.623-1.412 2.585-3.455 2.64-5.605.054-2.151-.806-4.242-2.358-5.739zm-1.588 9.827s-31.298 26.681-34.111 29.069c-3.051 2.58-7.933 5.654-13.869 5.654-4.825 0-10.796-1.302-16.571-2.561-6.608-1.441-12.314-2.685-15.475-1.79-.29.082-1.173.333-20.471 12.018-.597.362-1.362.182-1.741-.408l-11.61-18.062c-.188-.293-.25-.641-.173-.979.076-.337.28-.624.574-.807 8.035-4.989 17.701-11.002 18.122-11.316.524-.392 1.026-1.034 1.661-1.846 2.168-2.775 5.798-7.42 14.839-8.203.729-.064 1.465-.097 2.208-.097 2.659 0 5.399.412 8.175 1.231l3.916 1.147c4.19 1.228 8.528 1.85 12.894 1.85h16.757c1.975 0 3.768 1.109 4.68 2.896 0 .001.001.001.001.001.376.741.567 1.542.567 2.381 0 2.911-2.368 5.278-5.278 5.278h-5.038c-.552 0-1 .448-1 1s.448 1 1 1h5.037c4.013 0 7.278-3.265 7.278-7.278 0-.877-.153-1.724-.452-2.53l20.569-16.21c2.362-1.863 5.678-1.789 7.711.171 1.167 1.125 1.787 2.633 1.746 4.247-.041 1.595-.753 3.107-1.946 4.144z"/><path d="m61.235 91.855h-7.976c-.552 0-1 .448-1 1s.448 1 1 1h7.976c.552 0 1-.448 1-1s-.447-1-1-1z"/><path d="m73.884 91.855h-8.884c-.552 0-1 .448-1 1s.448 1 1 1h8.884c.552 0 1-.448 1-1s-.448-1-1-1z"/></g></g></g></g></svg>